<?xml version="1.0" encoding="utf-8"?>
<!-- Generator: Adobe Illustrator 16.0.0, SVG Export Plug-In . SVG Version: 6.00 Build 0)  -->
<!DOCTYPE svg PUBLIC "-//W3C//DTD SVG 1.1//EN" "http://www.w3.org/Graphics/SVG/1.1/DTD/svg11.dtd">
<svg version="1.1" id="Calque_1" xmlns="http://www.w3.org/2000/svg" xmlns:xlink="http://www.w3.org/1999/xlink" x="0px" y="0px"
	 width="1000px" height="1000px" viewBox="0 0 1000 1000" enable-background="new 0 0 1000 1000" xml:space="preserve">
<title>bill-alt</title>
<path fill="#FFFFFF" d="M500,325.5c75.2,0,136.3,78.1,136.3,174.5c0,96.4-61.1,174.6-136.3,174.6c-75.3,0-136.3-78.1-136.3-174.5
	C363.7,403.7,424.7,325.5,500,325.5L500,325.5z M62.5,749.2h875V251.1h-875V749.2z M220.2,700c0-67.3-54.6-121.9-121.8-121.9v-156
	c67.1,0,121.8-54.6,121.8-121.899h559.6c0,67.3,54.601,121.899,121.9,121.899V578.2c-67.3,0-121.9,54.6-121.9,121.899L220.2,700
	L220.2,700z"/>
</svg>
