<?xml version="1.0" standalone="no"?>
<!DOCTYPE svg PUBLIC "-//W3C//DTD SVG 20010904//EN"
 "http://www.w3.org/TR/2001/REC-SVG-20010904/DTD/svg10.dtd">
<svg version="1.0" xmlns="http://www.w3.org/2000/svg"
 width="87.000000pt" height="87.000000pt" viewBox="0 0 87.000000 87.000000"
 preserveAspectRatio="xMidYMid meet">

<g transform="translate(0.000000,87.000000) scale(0.100000,-0.100000)"
fill="#000000" stroke="none">
<path d="M20 850 c-18 -18 -20 -33 -20 -185 0 -152 2 -167 20 -185 18 -18 33
-20 185 -20 219 0 205 -14 205 205 0 152 -2 167 -20 185 -18 18 -33 20 -185
20 -152 0 -167 -2 -185 -20z m228 -106 c36 -10 26 -27 -11 -20 -26 5 -40 1
-60 -15 -54 -41 -21 -104 53 -101 49 2 53 -15 6 -23 -38 -8 -90 14 -100 40
-29 76 31 140 112 119z"/>
<path d="M480 850 c-18 -18 -20 -33 -20 -185 0 -219 -14 -205 205 -205 219 0
205 -14 205 205 0 152 -2 167 -20 185 -18 18 -33 20 -185 20 -152 0 -167 -2
-185 -20z m229 -115 c32 -16 41 -33 41 -76 0 -55 -64 -92 -121 -69 -34 15 -49
37 -49 75 0 70 64 104 129 70z"/>
<path d="M626 709 c-31 -24 -33 -48 -8 -79 35 -43 112 -15 112 40 0 20 -44 60
-65 60 -7 0 -24 -9 -39 -21z"/>
<path d="M20 390 c-18 -18 -20 -33 -20 -185 0 -219 -14 -205 205 -205 219 0
205 -14 205 205 0 219 14 205 -205 205 -152 0 -167 -2 -185 -20z m250 -137
c45 -58 7 -122 -78 -131 l-52 -5 0 80 c0 44 2 82 4 84 2 2 27 2 55 1 40 -3 55
-9 71 -29z"/>
<path d="M162 203 l3 -58 33 2 c43 2 62 19 62 57 0 42 -16 56 -62 56 l-39 0 3
-57z"/>
<path d="M480 390 c-18 -18 -20 -33 -20 -185 0 -152 2 -167 20 -185 18 -18 33
-20 185 -20 219 0 205 -14 205 205 0 219 14 205 -205 205 -152 0 -167 -2 -185
-20z m220 -116 c3 -5 -10 -10 -28 -12 -28 -3 -33 -7 -30 -25 2 -15 10 -21 28
-22 38 0 40 -20 2 -23 -28 -3 -33 -7 -30 -25 2 -17 11 -23 36 -25 48 -5 39
-22 -13 -22 l-45 0 0 78 c0 43 2 81 4 83 8 8 71 2 76 -7z"/>
</g>
</svg>
