<?xml version="1.0" encoding="utf-8"?>
<!-- Generator: Adobe Illustrator 16.0.0, SVG Export Plug-In . SVG Version: 6.00 Build 0)  -->
<!DOCTYPE svg PUBLIC "-//W3C//DTD SVG 1.1//EN" "http://www.w3.org/Graphics/SVG/1.1/DTD/svg11.dtd">
<svg version="1.1" id="Calque_1" xmlns="http://www.w3.org/2000/svg" xmlns:xlink="http://www.w3.org/1999/xlink" x="0px" y="0px"
	 width="1000px" height="1000px" viewBox="0 0 1000 1000" enable-background="new 0 0 1000 1000" xml:space="preserve">
<title>pencil-alt-1</title>
<path fill="#FFFFFF" d="M305.9,603.3L477.3,222.6c-26.8-5.6-56.6-9.5-89.5-11.3L232.9,569.1C264.7,574.7,289.6,589.9,305.9,603.3z
	 M755.9,124.8L506.5,2.7c-13.2-6.5-28.7-0.9-34.5,12.7L407.7,164c149.2,18.1,245.399,75.3,305.2,130.2l56.6-133.1
	C775.2,147.5,769.2,131.3,755.9,124.8z M691.4,347.9c-10.2-14.6-26.601-34-51.4-53.6L471.5,668.4c29.2,4.8,53.1,17.899,70.6,31.199
	L691.4,347.9L691.4,347.9z M342.4,619.6c42.3,5.5,72.8,21.5,91.5,34.801l172.5-383.3c-24.2-14.5-53.801-28-89.7-38.6L342.4,619.6z
	 M347.7,901.9C325.5,885,290,865.7,240,858.1l6.8,141.9L347.7,901.9L347.7,901.9z M520.6,733.6c-17.8-14-44.6-28.8-78.199-27
	l-9.601,0.5l-6.5-7.3c-1.5-1.7-39.2-42.3-113.899-42.3H302.6l-6-7.8c-1.3-1.601-26.7-32.7-68.6-41l10,208.5
	c65.5,8.3,111,34.399,138.6,56.399L520.6,733.6L520.6,733.6z"/>
</svg>
