<?xml version="1.0" encoding="utf-8"?>
<!-- Generator: Adobe Illustrator 16.0.0, SVG Export Plug-In . SVG Version: 6.00 Build 0)  -->
<!DOCTYPE svg PUBLIC "-//W3C//DTD SVG 1.1//EN" "http://www.w3.org/Graphics/SVG/1.1/DTD/svg11.dtd">
<svg version="1.1" id="Calque_1" xmlns="http://www.w3.org/2000/svg" xmlns:xlink="http://www.w3.org/1999/xlink" x="0px" y="0px"
	 width="1000px" height="1000px" viewBox="0 0 1000 1000" enable-background="new 0 0 1000 1000" xml:space="preserve">
<title>user-alt-7</title>
<path fill="#FFFFFF" d="M969.4,819.1C925.3,696.9,847.8,602.5,734.5,537.9c-5.8-3.301-9.5-3.4-15.1,1.199
	C658.4,590.2,588.3,618.2,508.3,619.9c-85.7,1.899-161.3-25-226.8-80.2c-6.1-5.101-10.3-5.101-16.9-1.4
	c-45.6,25.7-86.5,57.3-122,95.6c-75,81-120.6,176.2-136.7,285.5C3.7,933.8,2,948.2,0,962.7V996c329.4,0,658.7-0.101,988.1,0.1
	c9.2,0.101,12.2-1.7,11.9-11.5C998.1,927.8,988.7,872.5,969.4,819.1L969.4,819.1z M495.4,558.6C654,560.1,779,435.9,777.5,279
	C776,121.4,647.8,2.9,499.6,4C344.1,4.5,221.6,128.4,222.7,284.6C223.7,433.5,343.5,557.3,495.4,558.6z"/>
</svg>
